
<svg class="w-5 h-5" xmlns="http://www.w3.org/2000/svg" viewBox="0 0 24 24" fill="currentColor">
                      <path d="M12 2.247c-5.444 0-9.853 4.4-9.853 9.853 0 4.355 2.822 8.045 6.738 9.345.492.09.671-.213.671-.476v-1.73c-2.737.598-3.285-1.326-3.285-1.326-.448-1.138-1.094-1.44-1.094-1.44-.897-.611.067-.611.067-.611.993.07 1.52 1.04 1.52 1.04.897 1.538 2.336 1.107 2.894.841.09-.646.345-1.106.648-1.325-2.192-.24-4.503-1.107-4.503-4.91 0-1.08.393-1.967 1.033-2.658-.104-.253-.448-1.27.104-2.647 0 0 .84-.27 2.753 1.04.81-.225 1.71-.33 2.61-.33.9 0 1.8.104 2.61.33 1.897-1.315 2.753-1.04 2.753-1.04.552 1.38.214 2.397.104 2.647.64.69 1.033 1.578 1.033 2.658 0 3.81-2.32 4.665-4.53 4.91.345.294.673.897.673 1.809v2.678c0 .27.18.574.673.475 3.92-1.3 6.75-4.99 6.75-9.345 0-5.453-4.41-9.854-9.854-9.854z"></path>
                    </svg>